# xmcd
#
# Track frame offsets: 
#        150
#        19929
#        37985
#        56758
#        77193
#        94293
#        98800
#        113756
#        131511
#        148996
#        153921
#        171333
#        190068
#        207901
#        229232
#        245843
#        265537
#        286217
#        301324
#
# Disc length: 4240 seconds
#
# Revision: 0
# Processed by: cddbd v1.5.2PL0 Copyright (c) Steve Scherf et al.
# Submitted via: ExactAudioCopyFreeDBPlugin 1.0
#
DISCID=0d108e13
DTITLE=TGT - Three Kings (Deluxe Edition)
DYEAR=2013
DGENRE=R&B
TTITLE0=Take It Wrong (feat. Black-Ty)
TTITLE1=No Fun (feat. Problem)
TTITLE2=Sex Never Felt Better
TTITLE3=I Need
TTITLE4=Next Time Around
TTITLE5=Interlude
TTITLE6=Hurry
TTITLE7=Weekend Love
TTITLE8=Lessons In Love
TTITLE9=Interlude
TTITLE10=Explode
TTITLE11=FYH
TTITLE12=OMG
TTITLE13=Running Back
TTITLE14=Burn Out
TTITLE15=Tearing It Down
TTITLE16=Our House
TTITLE17=All For You
TTITLE18=Between The Lines
EXTD=
EXTT0=
EXTT1=
EXTT2=
EXTT3=
EXTT4=
EXTT5=
EXTT6=
EXTT7=
EXTT8=
EXTT9=
EXTT10=
EXTT11=
EXTT12=
EXTT13=
EXTT14=
EXTT15=
EXTT16=
EXTT17=
EXTT18=
PLAYORDER=
